<?xml version="1.0" encoding="UTF-8"?>
<svg version="1.1" xmlns="http://www.w3.org/2000/svg" width="400" height="400">
<path d="M0 0 C0.18585939 8.85803321 0.32775471 17.7153893 0.41449738 26.57495117 C0.45614354 30.68950563 0.51256933 34.80272044 0.60351562 38.91650391 C0.69083265 42.89127635 0.73835357 46.86476567 0.75901794 50.84042358 C0.77373123 52.35236809 0.80246543 53.86424705 0.84584045 55.37564087 C1.17093558 67.17953609 1.17093558 67.17953609 -1.69799805 71.63989258 C-3.69637684 73.66557352 -5.70197996 75.3291254 -8 77 C-9.30027851 78.13605132 -10.5932098 79.28062892 -11.875 80.4375 C-12.53242188 81.00339844 -13.18984375 81.56929688 -13.8671875 82.15234375 C-16.27376821 84.2371655 -18.63764945 86.36521533 -21 88.5 C-23.95869751 91.17048344 -26.92926472 93.82298058 -29.9375 96.4375 C-33.16559512 99.24822525 -36.33738443 102.115799 -39.5 105 C-43.28662998 108.45328153 -47.1047632 111.86099051 -50.97265625 115.22265625 C-53.33489173 117.29359487 -55.66795853 119.39512848 -58 121.5 C-62.29701427 125.37522146 -66.60897995 129.23132925 -71 133 C-71.85584875 133.87076203 -72.7116975 134.74152407 -73.59348106 135.63867283 C-76.40314986 137.95970593 -77.02186583 138.00081369 -80.96238136 138.14745235 C-82.47503515 137.9548216 -83.98401994 137.73181129 -85.48867798 137.48435974 C-86.31672711 137.3724374 -87.14477624 137.26051507 -87.99791777 137.14520115 C-89.76740576 136.90510549 -91.53538699 136.65367613 -93.30179262 136.39186549 C-96.81549794 135.88156377 -100.33734907 135.46178971 -103.86271644 135.04110444 C-108.63848507 134.46782295 -113.40931601 133.85523226 -118.18115234 133.25024414 C-120.33343299 132.97882073 -122.48573151 132.70753891 -124.63804626 132.43638611 C-131.6210757 131.55578504 -138.6035474 130.67081048 -145.5859375 129.78515625 C-146.77823487 129.63399251 -147.97053224 129.48282876 -149.19895983 129.3270843 C-160.45413678 127.90004019 -171.70912051 126.47148263 -182.96359825 125.03893375 C-197.31247286 123.21259106 -211.66229956 121.39414438 -226.01351774 119.58630663 C-236.13807325 118.31025679 -246.26148245 117.02536235 -256.38407671 115.73384756 C-262.4200674 114.96397091 -268.45649556 114.19801386 -274.49418259 113.44154549 C-280.15748242 112.73179255 -285.81928595 112.01112943 -291.48011971 111.2819767 C-293.55771734 111.01631187 -295.63582907 110.75463289 -297.71446419 110.49721146 C-300.54863321 110.14561349 -303.38061018 109.77978294 -306.2124939 109.41029358 C-307.03708709 109.31144979 -307.86168029 109.212606 -308.71126115 109.11076695 C-314.62186222 108.31651597 -318.67656144 106.46791738 -323.05078125 102.328125 C-323.57986084 101.83248047 -324.10894043 101.33683594 -324.65405273 100.82617188 C-325.20134033 100.30603516 -325.74862793 99.78589844 -326.3125 99.25 C-327.47590628 98.16075701 -328.63996534 97.07221081 -329.8046875 95.984375 C-330.35995117 95.46423828 -330.91521484 94.94410156 -331.48730469 94.40820312 C-335.68317043 90.50217446 -340.05783865 86.80126574 -344.421875 83.0859375 C-345.04070557 82.55806641 -345.65953613 82.03019531 -346.29711914 81.48632812 C-347.52626436 80.43862589 -348.75713128 79.39293902 -349.98999023 78.34960938 C-350.8515271 77.61581055 -350.8515271 77.61581055 -351.73046875 76.8671875 C-352.23989014 76.43519043 -352.74931152 76.00319336 -353.27416992 75.55810547 C-353.84369385 75.04393066 -354.41321777 74.52975586 -355 74 C-355.85414993 73.31430939 -356.70829987 72.62861877 -357.58833313 71.92214966 C-360.79257729 68.03965614 -360.59433202 65.5393466 -360.3125 60.6875 C-360.28994141 59.94693359 -360.26738281 59.20636719 -360.24414062 58.44335938 C-360.1855815 56.62802643 -360.09590886 54.81374319 -360 53 C-329.36120065 48.41368218 -298.72230877 43.82798304 -268.08330162 39.24305367 C-264.39806308 38.69158103 -260.71282526 38.14010355 -257.02758789 37.58862305 C-256.29446509 37.47891434 -255.56134229 37.36920564 -254.80600365 37.25617243 C-244.62710284 35.73293309 -234.44824065 34.20943599 -224.26941119 32.68571992 C-192.83809912 27.98063514 -161.4064415 23.27787722 -129.97372627 18.5821743 C-127.28279694 18.18017314 -124.59186829 17.77816743 -121.90093994 17.37615967 C-121.2393603 17.27732597 -120.57778065 17.17849228 -119.89615314 17.07666363 C-110.05860518 15.60698376 -100.22133529 14.13545151 -90.38421631 12.66290283 C-79.44402252 11.02526611 -68.50345508 9.39015497 -57.56237453 7.75845271 C-52.01052353 6.93041102 -46.45885463 6.10119489 -40.90764809 5.2688427 C-35.83403406 4.50813799 -30.75993187 3.75078396 -25.68540978 2.99616122 C-23.84920005 2.72249543 -22.01317506 2.4475867 -20.17735267 2.17133451 C-17.69324116 1.79771408 -15.20850571 1.42856342 -12.72355652 1.06056213 C-12.0062064 0.9515726 -11.28885627 0.84258307 -10.54976827 0.73029083 C-7.00247731 0.209994 -3.58601676 -0.11783187 0 0 Z " fill="#19B394" transform="translate(380,153)"/>
<path d="M0 0 C3.4023139 1.59692599 6.66542792 3.40303532 9.9375 5.25 C10.90405518 5.7864917 11.87061035 6.3229834 12.86645508 6.87573242 C15.91701335 8.57327809 18.95952357 10.2844704 22 12 C22.93650391 12.5273877 23.87300781 13.05477539 24.83789062 13.59814453 C28.56636565 15.69951726 32.29272038 17.80453098 36.01464844 19.91748047 C41.33990962 22.93980449 46.67645243 25.94047097 52.03125 28.91015625 C52.62738602 29.24076553 53.22352203 29.57137482 53.83772278 29.91200256 C56.72867934 31.51436897 59.62092754 33.11434411 62.5144043 34.7121582 C63.57570557 35.29956787 64.63700684 35.88697754 65.73046875 36.4921875 C66.76606934 37.06291992 67.80166992 37.63365234 68.86865234 38.22167969 C71.0338951 39.4513404 73.17388077 40.72616567 75.29150391 42.03613281 C76.34644043 42.68678711 77.40137695 43.33744141 78.48828125 44.0078125 C79.42841064 44.60480957 80.36854004 45.20180664 81.3371582 45.81689453 C84.55151228 47.24503791 85.71093404 47.14481301 89 46 C90.97077863 45.05474202 92.90615247 44.03410527 94.8125 42.96484375 C95.95541504 42.32861084 97.09833008 41.69237793 98.27587891 41.03686523 C99.51728839 40.33714031 100.75866108 39.63735009 102 38.9375 C103.29696572 38.21291097 104.59433628 37.48904617 105.89208984 36.76586914 C108.58945196 35.26205039 111.28504219 33.75512351 113.97949219 32.24609375 C117.78303962 30.11824784 121.59625758 28.00838821 125.4140625 25.90625 C126.31211861 25.41155212 126.31211861 25.41155212 127.22831726 24.90686035 C130.22070255 23.259187 133.21444202 21.61400748 136.20922852 19.97070312 C141.73670689 16.93317102 147.24726431 13.87298011 152.71087646 10.72166443 C155.18891967 9.29316621 157.67340153 7.87606729 160.15814209 6.45925903 C161.89503748 5.46188322 163.62175108 4.44684208 165.34814453 3.43139648 C166.92184814 2.53529663 166.92184814 2.53529663 168.52734375 1.62109375 C169.44249756 1.0892749 170.35765137 0.55745605 171.30053711 0.00952148 C175.50433812 -1.56257919 178.49890155 -0.65577593 182.51928711 1.10058594 C183.3469458 1.55723633 184.17460449 2.01388672 185.02734375 2.484375 C185.97198486 3.0004834 186.91662598 3.5165918 187.88989258 4.04833984 C188.89560303 4.6098877 189.90131348 5.17143555 190.9375 5.75 C191.99799561 6.33346191 193.05849121 6.91692383 194.15112305 7.51806641 C203.13176976 12.47396172 212.05874485 17.52590859 220.9765625 22.59375 C228.78974337 27.02565106 236.65158782 31.37024726 244.51489258 35.71240234 C246.63055865 36.88339966 248.74312836 38.06001181 250.85229492 39.24267578 C253.03754419 40.46267301 255.23394032 41.66283226 257.4387207 42.84716797 C259.07780396 43.75039795 259.07780396 43.75039795 260.75 44.671875 C261.73871094 45.20651367 262.72742188 45.74115234 263.74609375 46.29199219 C266 48 266 48 266.78515625 50.16894531 C266.8125 52.375 266.8125 52.375 266 56 C263.8521085 58.1478915 259.42649824 57.9398452 256.45960999 58.37255859 C255.55097039 58.50842628 254.6423308 58.64429398 253.70615667 58.78427887 C250.6315853 59.24296778 247.5561602 59.69566161 244.48071289 60.1484375 C242.28127301 60.47531919 240.08188769 60.80256812 237.8825531 61.13015747 C231.85090482 62.02749581 225.81850029 62.91965673 219.78596425 63.81100464 C213.36324138 64.76093732 206.94123483 65.71568847 200.51914978 66.66992188 C189.61091702 68.29022643 178.7022214 69.90738793 167.79321289 71.52246094 C156.84147213 73.14386974 145.88992809 74.76659391 134.9387207 76.39160156 C134.27956487 76.48941071 133.62040903 76.58721987 132.94127877 76.68799293 C128.95622777 77.2793326 124.97118667 77.8707389 120.98614958 78.46217227 C114.99357255 79.35154922 109.00098523 80.2408569 103.00839233 81.13012695 C102.01972577 81.27684363 102.01972577 81.27684363 101.01108615 81.42652428 C91.69280132 82.80931549 82.37434802 84.19096645 73.05577825 85.57183611 C46.62984369 89.48788123 20.20528355 93.41279888 -6.21539342 97.3641777 C-10.28814362 97.97328251 -14.36094067 98.58207353 -18.43374348 99.19082642 C-29.98540778 100.91756147 -41.53693725 102.64516784 -53.08770227 104.37790966 C-57.73082844 105.0740117 -62.37421221 105.7683833 -67.01766467 106.46230507 C-69.16761334 106.78400725 -71.3174452 107.10649109 -73.46715283 107.42980003 C-76.38675012 107.86883681 -79.30673045 108.30523084 -82.2268219 108.7409668 C-83.08115073 108.87012733 -83.93547955 108.99928787 -84.81569713 109.13236237 C-87.9058337 109.59128739 -90.87110127 110 -94 110 C-94 89.54 -94 69.08 -94 48 C-67.64308739 33.10261461 -67.64308739 33.10261461 -56.875 27.1875 C-55.67423864 26.52650844 -54.4735575 25.86537112 -53.27294922 25.20410156 C-50.788406 23.83584327 -48.30353204 22.46818889 -45.81835938 21.10107422 C-39.88832051 17.838558 -33.96098804 14.57113387 -28.03424072 11.30264282 C-26.17399017 10.27701029 -24.31333609 9.25211291 -22.45263672 8.22729492 C-21.31584473 7.60056885 -20.17905273 6.97384277 -19.0078125 6.328125 C-17.95110352 5.74998047 -16.89439453 5.17183594 -15.80566406 4.57617188 C-13.49786449 3.27969136 -11.28336966 1.90849194 -9.0546875 0.484375 C-5.2416525 -1.36850646 -4.00342066 -1.35575963 0 0 Z " fill="#19B293" transform="translate(124,72)"/>
<path d="M0 0 C10.1308816 0.65584647 20.1682139 1.81578749 30.2331543 3.10131836 C31.92635504 3.31521612 33.61958823 3.52885724 35.31285095 3.74226379 C39.87033308 4.31761739 44.42727329 4.89715317 48.98406196 5.47797084 C51.83290502 5.84095049 54.68185133 6.20310874 57.53083229 6.56500435 C67.47340186 7.82811904 77.4154835 9.09500524 87.35717773 10.36499023 C96.6240231 11.54865082 105.89197411 12.72336624 115.16045445 13.89414877 C123.13003535 14.90129793 131.09876562 15.91499672 139.06686908 16.93376833 C143.821469 17.54153785 148.57638261 18.14653715 153.33218956 18.74479485 C157.79262742 19.30609513 162.25195634 19.87548823 166.71055031 20.45124626 C168.34930897 20.66143532 169.9884496 20.86866977 171.62797546 21.07278824 C173.8588095 21.35097863 176.08804382 21.63961172 178.31718445 21.93101501 C180.19167283 22.16965476 180.19167283 22.16965476 182.10402966 22.4131155 C185 23 185 23 187 25 C181.05144477 30.48258507 175.10435993 35.95721483 168.9921875 41.2578125 C166.63979365 43.31500399 164.31965034 45.40596915 162 47.5 C158.38323655 50.76390848 154.73610392 53.98790949 151.0625 57.1875 C148.69035571 59.27211164 146.34443935 61.38428644 144 63.5 C140.38323655 66.76390848 136.73610392 69.98790949 133.0625 73.1875 C130.69035571 75.27211164 128.34443935 77.38428644 126 79.5 C124.33371403 81.00042289 122.66706322 82.50044074 121 84 C120.28457031 84.64453125 119.56914062 85.2890625 118.83203125 85.953125 C114.72711565 89.6054677 110.52866176 92.88654504 106 96 C105.2265625 95.28714844 104.453125 94.57429688 103.65625 93.83984375 C98.48469595 89.0813478 93.30188279 84.34686101 87.9921875 79.7421875 C85.63979365 77.68499601 83.31965034 75.59403085 81 73.5 C78.01937279 70.81016569 75.02754767 68.13689636 72 65.5 C68.10487189 62.10746907 64.27217237 58.64805799 60.4375 55.1875 C58.30582519 53.27445851 56.1598089 51.38112388 54 49.5 C50.10487189 46.10746907 46.27217237 42.64805799 42.4375 39.1875 C40.30582519 37.27445851 38.1598089 35.38112388 36 33.5 C32.10487189 30.10746907 28.27217237 26.64805799 24.4375 23.1875 C21.67396527 20.70740473 18.87958378 18.26516638 16.078125 15.828125 C12.78285981 12.92928269 9.54150298 9.97092309 6.296875 7.015625 C4.06085025 4.98573474 4.06085025 4.98573474 1.703125 3.359375 C1.14109375 2.91078125 0.5790625 2.4621875 0 2 C0 1.34 0 0.68 0 0 Z " fill="#19B394" transform="translate(114,287)"/>
<path d="M0 0 C1.20114824 4.08680272 0.62254884 6.99343828 -0.21484375 11.1875 C-0.49163501 12.62367893 -0.7683243 14.05987751 -1.04492188 15.49609375 C-1.48702047 17.73654711 -1.93273365 19.97622326 -2.3815918 22.21533203 C-5.45564775 37.66293575 -5.02177546 50.61423004 -1.9375 66 C-1.49346085 68.23104952 -1.05289109 70.4625266 -0.62269592 72.69628906 C-0.2362247 74.70156127 0.16289265 76.70438415 0.56274414 78.70703125 C1 82 1 82 0 86 C-13.86 72.14 -27.72 58.28 -42 44 C-40.19583754 40.39167507 -38.88376614 38.63921415 -36.10107422 35.87402344 C-34.90005569 34.67323151 -34.90005569 34.67323151 -33.67477417 33.44818115 C-32.81014557 32.59387512 -31.94551697 31.73956909 -31.0546875 30.859375 C-30.1696756 29.97719299 -29.2846637 29.09501099 -28.37283325 28.18609619 C-26.02549869 25.84805457 -23.67393215 23.51444126 -21.32019043 21.18286133 C-18.91686073 18.80003474 -16.51922233 16.41149652 -14.12109375 14.0234375 C-9.41928533 9.34368138 -4.71181336 4.66968133 0 0 Z " fill="#1AB394" transform="translate(210,16)"/>
</svg>
